<?xml version="1.0" encoding="UTF-8" standalone="no"?>
<!-- Created with Inkscape (http://www.inkscape.org/) -->

<svg
   xmlns:dc="http://purl.org/dc/elements/1.1/"
   xmlns:cc="http://creativecommons.org/ns#"
   xmlns:rdf="http://www.w3.org/1999/02/22-rdf-syntax-ns#"
   xmlns:svg="http://www.w3.org/2000/svg"
   xmlns="http://www.w3.org/2000/svg"
   xmlns:sodipodi="http://sodipodi.sourceforge.net/DTD/sodipodi-0.dtd"
   xmlns:inkscape="http://www.inkscape.org/namespaces/inkscape"
   id="svg3336"
   version="1.1"
   inkscape:version="0.91 r13725"
   width="794"
   height="749"
   viewBox="0 0 794 749"
   sodipodi:docname="turd.svg">
  <metadata
     id="metadata3342">
    <rdf:RDF>
      <cc:Work
         rdf:about="">
        <dc:format>image/svg+xml</dc:format>
        <dc:type
           rdf:resource="http://purl.org/dc/dcmitype/StillImage" />
        <dc:title />
      </cc:Work>
    </rdf:RDF>
  </metadata>
  <defs
     id="defs3340" />
  <sodipodi:namedview
     pagecolor="#ffffff"
     bordercolor="#666666"
     borderopacity="1"
     objecttolerance="10"
     gridtolerance="10"
     guidetolerance="10"
     inkscape:pageopacity="0"
     inkscape:pageshadow="2"
     inkscape:window-width="1094"
     inkscape:window-height="860"
     id="namedview3338"
     showgrid="false"
     inkscape:zoom="0.19962217"
     inkscape:cx="1048.3146"
     inkscape:cy="-207.97124"
     inkscape:window-x="0"
     inkscape:window-y="1"
     inkscape:window-maximized="0"
     inkscape:current-layer="g4205" />
  <g
     inkscape:groupmode="layer"
     id="layer1"
     inkscape:label="bot" />
  <g
     id="g3375"
     inkscape:export-xdpi="90"
     inkscape:export-ydpi="90">
    <g
       transform="translate(26.107841,-22.37815)"
       id="g3346">
      <g
         id="g4225"
         transform="translate(-633.69716,-252.97792)">
        <ellipse
           transform="translate(-26.107841,22.37815)"
           style="fill:#ffffff;fill-opacity:1;stroke:none;stroke-width:1;stroke-miterlimit:4;stroke-dasharray:none;stroke-opacity:1"
           id="path3364"
           cx="318.88861"
           cy="362.97693"
           rx="88.890984"
           ry="116.24206" />
        <ellipse
           transform="translate(-26.107841,22.37815)"
           ry="116.24206"
           rx="88.890984"
           cy="362.97693"
           cx="582.45349"
           id="ellipse3368"
           style="fill:#ffffff;fill-opacity:1;stroke:none;stroke-width:1;stroke-miterlimit:4;stroke-dasharray:none;stroke-opacity:1" />
        <rect
           transform="translate(-26.107841,22.37815)"
           style="fill:#ffffff;fill-opacity:1;stroke:none;stroke-width:1;stroke-miterlimit:4;stroke-dasharray:none;stroke-opacity:1"
           id="rect3370"
           width="329.45609"
           height="87.026138"
           x="275.99716"
           y="506.57004" />
        <path
           style="fill:#b79f8c"
           d="m 532.62138,716.11372 c -1.925,-0.20895 -19.475,-0.84587 -39,-1.41537 -19.525,-0.56951 -47.425,-1.69354 -62,-2.49785 -14.575,-0.80431 -44.95,-2.15358 -67.5,-2.99839 -22.55,-0.84481 -50.45,-2.02501 -62,-2.62267 -22.68247,-1.17371 -19.51214,-1.41004 -68,5.06896 -23.5666,3.149 -47.51074,4.34288 -73.5,3.66479 -31.86407,-0.83136 -50.47892,-4.09452 -72.588534,-12.72467 -33.51812,-13.0833 -57.197203,-39.10294 -62.88843,-69.10465 -6.454497,-34.02534 10.988014,-84.06654 37.762593,-108.33792 16.806513,-15.23524 39.547051,-25.61275 62.430131,-28.48961 14.25291,-1.79188 15.28551,-2.01357 15.25759,-3.27564 -0.0146,-0.66258 -2.07711,-3.90469 -4.58324,-7.20469 -13.82853,-18.209 -21.02026,-44.29372 -18.40775,-66.76569 4.13512,-35.5691 23.57616,-66.77408 52.11201,-83.64545 21.73318,-12.84939 48.90563,-20.43813 48.90563,-13.65839 0,0.74806 -1.37561,4.59275 -3.05692,8.54376 -7.04428,16.55382 -9.98587,30.06839 -10.67098,49.02577 -1.87593,51.90833 24.60802,97.94716 64.2279,111.65167 7.16384,2.47796 9.35876,2.76485 21,2.74473 11.36965,-0.0196 14.00329,-0.35622 21,-2.68384 11.81134,-3.92931 19.88041,-9.08382 30.06359,-19.20455 17.02463,-16.92022 27.5104,-37.68769 32.57094,-64.50801 1.93301,-10.24476 1.62145,-36.73918 -0.56445,-48 -7.20124,-37.09776 -25.92715,-64.18525 -53.51046,-77.40419 -10.73913,-5.14659 -20.02879,-6.94406 -32.91607,-6.36899 -22.3268,0.9963 -41.25009,11.43149 -56.94774,31.40365 -3.61804,4.60324 -7.31592,8.36953 -8.21751,8.36953 -3.79998,0 -13.4,-17.70389 -17.08103,-31.5 -2.99573,-11.22764 -3.05589,-28.77904 -0.13883,-40.5 5.68477,-22.84184 18.21816,-43.16148 40.14934,-65.09172 18.13819,-18.13741 28.63721,-24.84426 53.09222,-33.91571 6.325,-2.34622 11.91373,-4.6406 12.41941,-5.09862 0.54281,-0.49166 -0.54955,-3.68841 -2.66689,-7.8045 -4.8326,-9.39457 -6.12428,-16.26785 -5.46673,-29.08945 0.96101,-18.738714 8.00728,-36.606885 23.36082,-59.239149 10.81527,-15.942529 11.59586,-17.98164 11.54924,-30.170067 -0.0633,-16.551312 -3.71942,-29.229696 -10.09221,-34.996993 -11.57222,-10.472719 23.6508,-14.540497 46.89636,-5.415888 14.46092,5.676365 36.47622,18.059831 58.6487,32.989524 83.52007,56.237701 122.29229,114.281603 112.8242,168.903293 -2.8686,16.54903 -3.33464,15.29496 6.0271,16.21839 16.12511,1.59057 24.72978,3.63587 34,8.08169 19.05313,9.13752 38.11207,28.6253 50.38339,51.51707 l 4.61661,8.61213 0,21.5 c 0,20.40264 -0.14036,22.00219 -2.75,31.33913 -1.5125,5.41152 -2.75,10.69044 -2.75,11.73095 0,2.12726 0.51435,2.27773 13.3707,3.91151 20.51664,2.60724 32.07094,8.48631 48.1867,24.51841 9.38802,9.33928 11.74985,12.35877 15.64391,20 10.49405,20.59228 17.00295,51.91959 15.37502,74 -0.72228,9.79673 -3.68331,25.71746 -6.00908,32.3094 -1.78564,5.06104 -1.43732,5.519 8.23377,10.82548 42.64456,23.39889 65.74775,44.52361 79.81307,72.97814 6.55264,13.2562 8.37797,22.27227 8.37891,41.38698 10e-4,20.5504 -3.07518,33.28608 -12.62555,52.27098 -8.51846,16.93357 -19.0094,29.97808 -29.95003,37.24005 -16.38617,10.87652 -46.46996,18.88604 -80.82634,21.51924 -12.52639,0.96006 -154.33374,2.19519 -161.59108,1.40744 z m -98.21059,-98.49935 c 38.19522,-4.17581 73.91855,-18.98541 103.58647,-42.9432 13.54659,-10.9393 16.67523,-17.69783 10.79884,-23.32776 -1.5539,-1.48874 -4.3664,-3.20304 -6.25,-3.80957 -4.39309,-1.41459 -202.00821,-2.37616 -230.0051,-1.11917 -21.49798,0.9652 -25.00257,1.92928 -27.75999,7.63651 -1.8939,3.91991 -0.17405,7.51587 6.82828,14.27695 35.21373,34.00053 94.72988,54.54182 142.8015,49.28624 z m 140.6967,-126.76549 c 32.13516,-11.07651 55.66177,-43.50287 62.15907,-85.67287 1.88742,-12.25006 1.34874,-36.39455 -1.05976,-47.5 -5.35288,-24.6819 -15.46565,-44.10096 -31.02389,-59.57369 -8.99881,-8.94934 -18.70657,-15.22741 -29.75568,-19.24317 -6.67921,-2.42753 -8.59244,-2.65648 -22.30585,-2.66921 -13.00805,-0.0121 -15.86874,0.28649 -21.54187,2.24834 -40.2141,13.90659 -67.47355,64.33784 -62.97681,116.51001 1.99187,23.11011 7.9477,42.9238 17.5182,58.27903 6.36822,10.2174 18.16919,22.44054 27.86852,28.86549 9.21055,6.10118 13.16928,7.92932 23.13196,10.68233 10.33147,2.85491 26.49259,2.03539 37.98611,-1.92626 z M 545.8439,449.6139 c -11.82173,-2.32976 -23.82114,-13.0156 -30.67338,-27.31559 -6.5819,-13.73583 -7.98674,-20.43136 -7.99876,-38.1223 -0.009,-12.63503 0.34962,-16.26132 2.27195,-23 5.39167,-18.90038 15.42348,-32.54688 28.77763,-39.14685 6.5606,-3.24243 8.32883,-3.68158 14.67956,-3.64575 18.9238,0.10675 34.9637,14.34257 42.89305,38.06866 3.16288,9.46394 3.25081,10.19186 3.2886,27.22394 0.0339,15.27366 -0.24847,18.49123 -2.21949,25.29149 -6.46208,22.29499 -20.36664,37.53474 -37.12817,40.69343 -6.09561,1.14871 -7.8537,1.14276 -13.89099,-0.047 z m -265.22252,-0.5232 c -14.41502,-3.81 -27.66858,-19.2338 -34.21511,-39.81776 -2.89371,-9.09859 -3.60831,-32.42716 -1.3367,-43.63799 3.75432,-18.52832 15.3509,-36.17759 28.45808,-43.31141 6.04398,-3.28955 15.47157,-4.80669 22.6296,-3.64169 15.24108,2.48055 29.53373,17.69051 37.11228,39.49416 2.62247,7.54491 2.78268,8.99551 2.81625,25.5 0.0318,15.62149 -0.21576,18.30045 -2.30604,24.95693 -6.81699,21.7087 -19.5784,36.64196 -34.61846,40.51017 -7.2415,1.86247 -11.33882,1.85089 -18.5399,-0.0524 z"
           id="path3360"
           inkscape:connector-curvature="0" />
        <path
           style="fill:#a78a73"
           d="m 528.12138,715.63324 c -28.36433,-1.20943 -64.53132,-2.94759 -93,-4.4695 -45.03661,-2.40762 -131.99896,-5.82952 -149,-5.86304 -12.84262,-0.0253 -20.3414,0.5976 -38,3.15659 -36.75588,5.32648 -51.29823,6.62359 -74.5,6.64508 -31.64547,0.0293 -56.37801,-3.44838 -77.967261,-10.96311 -36.930368,-12.85462 -58.474811,-33.56293 -68.64435,-65.98029 -2.426751,-7.73574 -2.811446,-10.57965 -2.770723,-20.48296 0.03927,-9.54936 0.599976,-13.70508 3.30565,-24.5 8.44906,-33.7095 22.181306,-56.92137 43.27941,-73.15599 15.763745,-12.12993 38.657104,-21.00142 58.797274,-22.78476 10.05578,-0.89041 13,-1.51694 13,-2.76639 0,-0.57653 -2.19486,-4.02827 -4.87747,-7.67055 -13.34742,-18.12227 -19.32764,-36.11137 -19.27776,-57.98944 0.0785,-34.42074 18.98079,-70.66115 46.21309,-88.60187 18.27829,-12.0418 49.5873,-23.15022 52.40389,-18.59288 0.31889,0.51596 -0.96279,4.67846 -2.84816,9.25 -7.65081,18.55119 -10.61359,33.57278 -10.61359,53.81188 0,23.0427 3.89158,39.68078 13.96931,59.72447 25.30453,50.32841 74.40579,65.96126 115.53069,36.78264 15.46626,-10.97349 30.04226,-32.67424 37.33233,-55.58036 11.82533,-37.15633 6.12041,-81.73134 -14.40922,-112.58547 -26.56958,-39.9316 -72.02142,-50.38916 -107.92311,-24.83093 -5.9888,4.26339 -17.22925,15.44827 -23.10465,22.99042 -2.77099,3.55707 -3.28743,3.83369 -4.8054,2.57388 -3.17359,-2.63384 -9.47532,-14.53737 -12.50495,-23.62096 -7.61291,-22.82543 -5.57901,-44.69205 6.41366,-68.95369 7.20997,-14.58605 18.43729,-29.25887 33.87036,-44.26464 18.33271,-17.82514 26.7848,-22.79859 58.88098,-34.64726 2.6125,-0.96443 4.75,-2.34459 4.75,-3.06702 0,-0.72242 -1.56816,-4.6227 -3.48481,-8.66729 -11.38208,-24.01896 -5.55623,-51.104324 18.85946,-87.680754 5.25998,-7.879828 9.91499,-15.979828 10.34447,-18 1.29762,-6.103666 0.70983,-22.192158 -1.10856,-30.342396 -1.17358,-5.260148 -2.71624,-8.997374 -4.91083,-11.896905 -1.75985,-2.325152 -3.77338,-4.995574 -4.47451,-5.934271 -5.83783,-7.815869 19.02485,-11.561562 37.86289,-5.704243 27.88989,8.671815 79.09938,40.962489 115.08127,72.565682 36.9795,32.479403 58.71725,66.277867 64.37011,100.084437 1.98229,11.85492 1.65543,22.55612 -1.12431,36.80979 -1.16711,5.98457 -1.46187,9.59818 -0.83412,10.22593 0.53395,0.53395 5.99084,1.41134 12.12642,1.94976 25.34561,2.22417 39.43144,9.11506 57.89572,28.32298 10.15175,10.56062 19.55843,23.5936 24.24708,33.5944 2.58958,5.52351 2.64972,6.10577 2.64972,25.6518 0,18.85608 -0.1697,20.67458 -2.96701,31.79418 -2.21055,8.78715 -2.69768,12.22118 -1.91061,13.46894 0.76755,1.21682 3.74332,2.01219 10.88305,2.90885 24.006,3.01483 41.22439,12.30942 56.50238,30.50031 21.84517,26.01016 30.77032,79.83563 19.28205,116.28547 l -2.50813,7.95775 2.47918,2.1325 c 1.36355,1.17288 7.60016,4.97517 13.85914,8.44954 30.23942,16.78597 51.42964,34.4439 64.80512,54.00246 12.14716,17.76242 16.9403,31.25824 17.75786,50 0.31111,7.13183 0.0637,15.88147 -0.57604,20.37389 -3.09851,21.75761 -17.99702,51.77901 -33.06409,66.62611 -14.43222,14.22152 -38.70865,22.82355 -79.0429,28.00779 -25.97927,3.33917 -127.55228,5.03653 -176.5,2.94944 z m -88.89744,-97.49162 c 22.72906,-2.97952 41.53898,-8.54216 61.0084,-18.04196 21.92505,-10.69799 47.61345,-30.05475 51.91461,-39.11878 1.7013,-3.58521 1.69652,-3.85315 -0.12956,-7.2637 -1.2668,-2.366 -3.55531,-4.37082 -6.89601,-6.04117 l -5,-2.5 -122,0 -122,0 -5.57201,2.61319 c -6.10837,2.86473 -8.67847,6.76051 -7.51589,11.39261 1.96099,7.81322 26.86465,27.3458 49.5879,38.89308 35.0942,17.83382 71.44199,24.67588 106.60256,20.06673 z M 572.62138,493.13395 c 31.46499,-9.62722 56.0626,-40.22538 64.67949,-80.45794 2.76151,-12.89355 2.54341,-45.08106 -0.39023,-57.59295 -7.9618,-33.95676 -27.74178,-61.60986 -52.78926,-73.80124 -8.58987,-4.18095 -13.49668,-5.53548 -23.9236,-6.60415 -42.65486,-4.37178 -78.90106,28.67734 -90.79302,82.78467 -2.82084,12.83456 -2.99303,37.00535 -0.36841,51.71367 6.49043,36.37229 24.74715,64.07755 51.68163,78.42884 12.02666,6.40808 20.02396,8.18772 34.4034,7.65581 7.15534,-0.26468 14.22047,-1.12328 17.5,-2.12671 z m -26.19894,-44.48536 c -10.42371,-1.7573 -22.90469,-12.13719 -29.49078,-24.5262 -11.90939,-22.40261 -12.2773,-54.03077 -0.89584,-77.01231 11.79878,-23.82418 32.47051,-33.45641 52.18163,-24.31465 7.88034,3.65481 17.68424,14.17912 22.37605,24.0203 6.46708,13.56485 7.53336,18.95442 7.49031,37.86028 -0.043,18.88633 -1.14898,24.40965 -7.5604,37.75738 -6.72646,14.00359 -17.73231,23.36652 -30.70125,26.11824 -5.84188,1.23952 -6.59033,1.24494 -13.39972,0.097 z M 281.55073,448.3706 c -14.78242,-4.18615 -27.69529,-19.22308 -34.08749,-39.69459 -2.09501,-6.70946 -2.33527,-9.3446 -2.27938,-25 0.0571,-16.00482 0.28075,-18.15503 2.61732,-25.16665 5.80653,-17.42438 17.81918,-32.43884 29.44149,-36.79852 7.9406,-2.97863 20.63986,-2.62491 27.54106,0.76712 12.78239,6.28271 24.11489,22.44048 28.94512,41.2697 2.10009,8.18656 1.81386,34.57347 -0.46566,42.92835 -8.05125,29.50936 -30.58477,47.67763 -51.71246,41.69459 z"
           id="path3358"
           inkscape:connector-curvature="0" />
        <path
           style="fill:#916e51"
           d="m 537.12138,715.67614 c -18.56788,-0.80586 -46.38902,-2.18436 -101,-5.00442 -44.40904,-2.29324 -106.37313,-4.79736 -139.5,-5.63753 -21.88152,-0.55496 -23.21469,-0.47252 -48.5,2.99888 -14.3,1.96324 -30.725,4.01984 -36.5,4.57022 -5.775,0.55039 -16.00487,1.53276 -22.73305,2.18306 -6.72818,0.65029 -16.62818,0.91436 -22,0.58682 -39.8931,-2.43248 -64.56908,-7.50077 -85.897111,-17.64275 C 67.071841,691.11143 59.578299,685.85736 49.62138,675.73554 39.366338,665.31066 33.174479,654.87338 27.932642,639.17601 c -3.215416,-9.62898 -3.681403,-12.24638 -3.738727,-21 -0.03602,-5.5 0.479604,-11.8 1.145826,-14 0.666222,-2.2 2.295172,-8.50072 3.61989,-14.0016 4.97447,-20.65644 14.243969,-39.93132 26.276067,-54.63813 16.651448,-20.35303 44.934952,-34.53691 75.490522,-37.8577 5.71734,-0.62136 10.97139,-1.69344 11.67568,-2.38239 1.03649,-1.01393 0.56164,-2.19284 -2.4918,-6.18641 -23.38268,-30.58196 -27.45268,-67.16728 -11.49503,-103.32915 13.31517,-30.17372 35.29459,-49.597 68.54618,-60.57448 13.00434,-4.29317 18.45888,-5.21817 19.21112,-3.25787 0.30546,0.79603 -1.0938,5.43135 -3.10948,10.30071 -12.21974,29.51976 -13.62947,64.63216 -3.78122,94.1792 6.01062,18.03323 15.19799,33.51683 26.98176,45.47269 15.31997,15.54372 30.43161,22.94223 49.89578,24.42849 14.95893,1.14225 30.2043,-3.3051 44.93972,-13.10971 21.4322,-14.26049 38.55638,-43.28849 44.18966,-74.90796 3.45376,-19.38587 1.69736,-45.80578 -4.32036,-64.98721 -17.27755,-55.07208 -67.10416,-83.60721 -110.22941,-63.12712 -13.0081,6.17752 -22.25924,13.90443 -35.34943,29.52518 l -3.732,4.45346 -2.96125,-3.39425 c -4.00938,-4.59563 -9.52557,-16.16014 -12.27259,-25.72911 -1.88828,-6.5776 -2.24975,-10.18556 -2.19178,-21.87664 0.0606,-12.21185 0.41515,-15.14953 2.77627,-23 8.11447,-26.97981 29.66734,-56.0262 57.11334,-76.97058 6.45805,-4.92822 23.247,-13.16191 36.95001,-18.12115 5.93947,-2.14955 11.00465,-4.4408 11.25595,-5.09168 0.2513,-0.65087 -1.46878,-5.06962 -3.82241,-9.81943 -4.17833,-8.43222 -4.28928,-8.91551 -4.70153,-20.47799 -0.8179,-22.940254 5.27507,-39.530964 25.45093,-69.300949 4.01889,-5.929976 7.82275,-12.679976 8.45302,-15 0.71809,-2.643307 0.95574,-8.698549 0.63653,-16.218225 -0.6147,-14.480184 -3.06332,-23.201624 -8.19838,-29.200788 -1.93827,-2.264427 -3.52412,-4.788657 -3.52412,-5.6094 0,-0.820743 1.6875,-2.515353 3.75,-3.765799 3.2619,-1.977613 5.13682,-2.279427 14.40467,-2.318776 5.86006,-0.02488 11.71006,0.4439 13,1.041735 1.28993,0.597835 5.58247,2.064618 9.53898,3.259519 19.22013,5.804651 55.47254,27.176251 89.06672,52.506795 49.65485,37.440546 79.50115,77.090748 86.81889,115.337108 1.9745,10.31977 1.75646,27.72247 -0.49145,39.22539 -1.01847,5.21167 -1.63024,10.05306 -1.35949,10.75863 0.6126,1.59641 2.0491,1.88082 16.00696,3.16918 18.28185,1.68748 30.26173,6.55824 44.70203,18.17487 12.23363,9.84145 26.48621,27.66823 33.04466,41.33147 2.9105,6.06345 3.49645,8.53804 4.04666,17.09007 0.88248,13.71664 -0.82096,31.99229 -4.13328,44.34458 -3.39059,12.64417 -3.31505,12.76171 9.15181,14.23971 11.49144,1.36237 19.24074,3.3462 27.24132,6.97384 17.0591,7.73497 34.35379,25.42398 41.84467,42.79873 12.49536,28.98243 15.69343,65.2987 8.17207,92.79933 -3.57682,13.07804 -3.57549,13.08237 5.69478,18.48295 24.41129,14.22127 29.69462,17.49064 36.80063,22.77261 25.29524,18.80221 40.27083,37.88821 48.95722,62.39471 3.95365,11.15425 3.96806,11.24971 4.10486,27.19354 0.0942,10.97403 -0.2897,17.41356 -1.222,20.5 -7.01586,23.22631 -11.56006,33.5158 -21.10144,47.78032 -8.33711,12.46412 -17.04401,20.21012 -29.53927,26.27931 -20.12063,9.77298 -45.76863,14.95073 -88.5,17.86613 -18.14816,1.23818 -118.00557,2.00724 -139.5,1.07437 z m -93.5,-97.65104 c 29.11885,-4.24925 55.2405,-14.31245 80,-30.81951 17.97797,-11.98584 30,-23.6885 30,-29.20303 0,-3.82361 -2.86596,-7.87788 -7.40993,-10.48229 l -4.09007,-2.34426 -121,-0.26737 c -85.14206,-0.18813 -122.57365,0.0588 -126.31018,0.83339 -6.05964,1.25612 -11.69196,5.54925 -12.44443,9.48554 -1.75017,9.15545 21.01567,28.51211 51.75461,44.00436 36.12703,18.20781 71.68782,24.31101 109.5,18.79317 z M 570.4687,494.09362 c 12.79428,-2.89045 25.83947,-10.83442 37.65268,-22.92891 44.28285,-45.33726 42.93915,-131.26999 -2.73834,-175.1222 -9.74533,-9.3559 -19.52027,-15.49848 -30.48361,-19.15589 -6.8948,-2.30014 -9.42463,-2.60116 -22.27805,-2.65083 -13.29451,-0.0514 -15.10739,0.16572 -21.80585,2.61131 -38.25188,13.96564 -64.19415,57.11791 -64.19415,106.7803 0,49.2607 21.03539,88.55979 56.62111,105.78168 14.79166,7.15849 29.72062,8.63935 47.22621,4.68454 z m -28.23757,-46.84321 c -14.96563,-5.52099 -27.74052,-22.89182 -32.31743,-43.94403 -2.31214,-10.63508 -2.01666,-30.05037 0.61075,-40.13037 4.84026,-18.56958 15.36959,-33.55512 27.91722,-39.7323 5.93319,-2.92089 7.54201,-3.26629 15.15868,-3.25439 7.337,0.0115 9.33916,0.41273 14.40885,2.88782 12.21475,5.9634 23.06515,20.92136 27.79139,38.31215 3.05027,11.22384 3.03472,34.36401 -0.0308,45.78672 -4.8303,17.99879 -14.57019,31.62736 -26.96604,37.7323 -5.56796,2.74221 -7.92527,3.30867 -14.65868,3.52248 -5.09771,0.16187 -9.44238,-0.26858 -11.91397,-1.18038 z m -262.76557,0.0901 c -11.46565,-4.278 -19.53823,-12.2796 -26.39657,-26.16447 -6.61889,-13.40009 -7.85779,-19.29534 -7.77564,-37 0.0554,-11.93834 0.49847,-16.59216 2.17081,-22.80048 5.2772,-19.59086 18.87183,-36.23502 32.93539,-40.32341 7.77116,-2.25914 17.49756,-1.45442 24.63643,2.03831 11.66954,5.70937 23.07259,21.832 27.68508,39.1436 2.80852,10.54095 3.04859,32.50718 0.46931,42.94198 -2.69508,10.90327 -9.80064,24.47471 -16.40116,31.3258 -8.13718,8.44607 -14.49226,11.44224 -25.16783,11.86561 -5.50935,0.21849 -9.78627,-0.14283 -12.15582,-1.02694 z"
           id="path3356"
           inkscape:connector-curvature="0" />
        <path
           style="fill:#845a38"
           d="m 547.37138,715.90572 c -11.4125,-0.14866 -20.75,-0.64079 -20.75,-1.09363 0,-0.45283 -9.77891,-1.13563 -21.73092,-1.51733 -11.95201,-0.38169 -37.82712,-1.57197 -57.50024,-2.64505 -30.41534,-1.65903 -88.16236,-4.14332 -153.26884,-6.59366 -14.76242,-0.55559 -18.04974,-0.3221 -42.5,3.01868 -33.76403,4.61338 -52.40116,6.57708 -62.55,6.59057 -4.48032,0.006 -8.53519,0.4959 -9.14416,1.10487 -0.67553,0.67553 -3.33458,0.88949 -6.95,0.55922 -3.22071,-0.29421 -12.38084,-1.00629 -20.35584,-1.58239 -66.780013,-4.82406 -108.336402,-28.90297 -123.10476,-71.33026 -1.577666,-4.5324 -2.874504,-9.21573 -2.881862,-10.4074 -0.0074,-1.19166 -0.504034,-2.33022 -1.103725,-2.53011 -1.354182,-0.4514 -1.472474,-22.82305 -0.125322,-23.70112 0.508065,-0.33115 1.496688,-3.7521 2.196941,-7.6021 3.098021,-17.03297 12.126287,-39.28459 21.890495,-53.95266 16.550576,-24.86275 46.282437,-41.91803 79.440633,-45.57003 13.83659,-1.52394 14.68893,-1.74148 14.67918,-3.74636 -0.005,-0.95202 -2.59213,-5.33852 -5.75,-9.74777 -13.69913,-19.12772 -18.91145,-36.51481 -17.9574,-59.90178 0.65988,-16.176 3.55964,-27.43778 11.09289,-43.0814 8.88371,-18.44798 20.0486,-31.5958 35.26686,-41.53039 13.27524,-8.66617 33.48137,-17.06559 44.77924,-18.61413 5.59985,-0.76755 5.71792,-0.15485 1.68727,8.7562 -6.00934,13.28562 -9.86305,30.75815 -10.78272,48.88832 -1.33217,26.2623 7.03366,56.3396 21.73147,78.13016 8.60797,12.76194 23.21316,26.00291 35.46603,32.15329 10.42791,5.23434 19.04463,7.18545 31.47478,7.12696 10.22918,-0.0481 12.53234,-0.40663 20.842,-3.24403 18.4748,-6.30837 30.51237,-15.45624 42.32737,-32.16638 11.2319,-15.88547 19.17942,-35.35658 22.38042,-54.83117 2.67196,-16.25599 1.65412,-40.97692 -2.31266,-56.16883 -6.00908,-23.01353 -15.75828,-40.50742 -30.40904,-54.56577 -12.71549,-12.20132 -24.50968,-18.6351 -40.043,-21.84359 -17.24099,-3.56123 -34.8544,-0.29459 -51.51827,9.55475 -5.74843,3.39766 -21.28655,18.02416 -26.93489,25.35461 -3.03675,3.94112 -3.11254,3.97273 -5.14882,2.14769 -2.98106,-2.67182 -9.6129,-15.91806 -12.34008,-24.64769 -3.1698,-10.14646 -3.39704,-33.64249 -0.43038,-44.5 5.88523,-21.53904 18.94212,-41.98209 40.35729,-63.18702 5.65841,-5.60286 13.08748,-12.31031 16.50904,-14.90545 7.1932,-5.45579 24.14739,-13.80097 37.43333,-18.4254 13.94301,-4.85314 13.5744,-4.23869 8.53343,-14.22464 -12.16386,-24.09608 -6.34416,-51.767094 18.66209,-88.732964 9.08399,-13.42855 11.09217,-18.528595 11.09217,-28.170099 0,-14.714986 -3.76662,-29.241159 -9.18128,-35.40812 -3.68527,-4.197285 -3.33439,-6.590404 1.19346,-8.139869 1.9183,-0.656457 3.03782,-1.282316 2.48782,-1.390798 -0.55,-0.108482 1.41844,-0.489146 4.3743,-0.84592 6.98979,-0.843669 18.81444,-0.12074 16.98497,1.038416 -0.96001,0.608265 -0.58245,0.865732 1.28539,0.876547 13.56212,0.07853 53.21914,21.347119 90.94923,48.777297 59.19989,43.038949 91.01485,85.89264 96.12914,129.4827 1.16911,9.96458 0.56887,18.72464 -2.3984,35.00266 -0.88427,4.851 -0.92498,7.05231 -0.14485,7.83244 0.59681,0.59681 6.2005,1.5135 12.45266,2.03709 18.1437,1.51946 29.05404,5.14908 41.86756,13.92837 12.65324,8.66948 25.44239,22.73481 34.96567,38.45476 7.82797,12.92154 8.35783,15.46471 7.76406,37.26499 -0.44007,16.15725 -0.86936,20.01765 -3.12001,28.05717 -3.11302,11.12001 -3.35793,15.83125 -0.85972,16.53849 0.9625,0.27249 4.675,0.79188 8.25,1.1542 23.17817,2.3491 38.09968,9.57292 54.08784,26.18507 9.72786,10.10752 15.74786,20.65521 20.71794,36.30008 8.76817,27.60048 9.98582,54.32952 3.58396,78.67273 -1.42143,5.405 -2.79897,10.73984 -3.0612,11.8552 -0.64833,2.75754 1.01953,4.04633 16.17146,12.49599 30.68742,17.11322 50.11835,33.05349 64.10167,52.58612 7.70291,10.75984 16.39833,30.33577 16.39833,36.91743 0,1.4724 0.43163,2.3238 1,1.97253 1.66393,-1.02836 1.68414,33.36316 0.0203,34.5 -0.40249,0.275 -1.05604,2.3 -1.45233,4.5 -1.26778,7.03795 -5.57712,18.71719 -10.63612,28.82619 -12.84662,25.67037 -26.26548,38.46096 -49.08875,46.79043 -17.70887,6.46293 -46.22612,11.5432 -69.84308,12.44234 -7.425,0.28268 -15.75,0.94319 -18.5,1.46779 -5.0051,0.95479 -79.70701,1.71153 -118.75,1.20296 z M 440.96552,619.1755 c 34.56669,-4.5313 67.53627,-18.40216 95.15586,-40.03368 12.3722,-9.68984 18.50313,-16.79597 18.49626,-21.43832 -0.006,-3.93737 -3.5025,-8.72506 -8.20703,-11.23715 l -4.28923,-2.29034 -123.5,0 c -134.31479,0 -128.08318,-0.26297 -134.00094,5.65479 -5.39355,5.39355 -3.88795,11.81143 4.67248,19.91723 26.76854,25.34689 68.8555,44.89013 107.32846,49.83837 10.75331,1.38304 32.17323,1.18456 44.34414,-0.4109 z M 569.10838,495.16129 c 22.04266,-4.6691 44.3324,-23.45027 57.30252,-48.28268 27.29516,-52.2589 16.30566,-120.33578 -25.1751,-155.95266 -6.77275,-5.81533 -20.14701,-13.15822 -28.61442,-15.71022 -8.3147,-2.50597 -26.00064,-3.11143 -34.21378,-1.17127 -44.03297,10.40174 -74.7932,59.04461 -72.4894,114.63155 0.90041,21.72531 5.44181,41.53889 12.95018,56.5 12.53082,24.96882 31.72383,42.1916 54.753,49.1324 9.09125,2.74003 24.79596,3.11747 35.487,0.85288 z M 544.55073,447.3706 c -16.16292,-4.57708 -29.43289,-21.86296 -34.10307,-44.42371 -1.63575,-7.90196 -1.9258,-12.16181 -1.51643,-22.27088 0.82583,-20.39314 6.64285,-35.91687 17.82059,-47.55733 10.65312,-11.09411 21.93714,-15.07813 33.97289,-11.99471 15.68526,4.01838 27.34768,17.23559 34.05503,38.59511 2.07126,6.59591 2.34164,9.41985 2.34164,24.45693 0,19.50719 -1.0886,25.05776 -7.46775,38.07686 -9.50299,19.39447 -28.31614,29.87148 -45.1029,25.11773 z m -262.42935,0.43404 c -14.04861,-3.67459 -26.93305,-18.45918 -33.66397,-38.62863 -2.09238,-6.2699 -2.33603,-8.82525 -2.33603,-24.5 0,-15.54983 0.26097,-18.33579 2.34186,-25 5.06658,-16.22611 15.7328,-30.80584 26.19309,-35.80351 20.09827,-9.60247 40.39284,-0.18973 52.40018,24.30351 5.90223,12.0397 7.04247,17.93942 7.05433,36.5 0.009,14.51947 -0.27056,17.40024 -2.33132,24 -7.4399,23.82685 -22.48516,38.75535 -39.89921,39.58954 -3.71741,0.17807 -8.10893,-0.0293 -9.75893,-0.46091 z"
           id="path3354"
           inkscape:connector-curvature="0" />
        <path
           style="fill:#6f4725"
           d="m 574.62138,715.0373 c -43.63959,-1.29706 -80.5049,-2.79191 -120.5,-4.88616 -25.85,-1.35358 -64.1,-3.12963 -85,-3.94678 -20.9,-0.81715 -49.475,-1.99694 -63.5,-2.62176 l -25.5,-1.13603 -25.5,3.56326 c -45.97183,6.4239 -53.45526,7.07105 -82,7.09116 -27.24813,0.0192 -37.03268,-0.8002 -55,-4.60593 -30.086294,-6.37271 -51.800286,-17.3378 -67.618292,-34.14574 -12.060533,-12.81531 -19.681999,-27.30214 -22.952053,-43.6271 -2.782123,-13.88908 -0.258638,-32.85227 7.237631,-54.38849 6.555483,-18.83342 16.480454,-34.75653 29.295134,-46.9996 18.419131,-17.59754 38.95469,-26.72418 67.84843,-30.15396 12.2705,-1.45655 14.18915,-1.9175 14.18915,-3.40892 0,-0.4327 -2.62926,-4.42761 -5.84281,-8.87757 -11.26554,-15.59998 -16.9441,-29.60522 -19.14489,-47.21767 -4.2537,-34.04153 14.64011,-75.95204 43.53572,-96.57152 8.1625,-5.82464 21.95444,-12.63546 33.07573,-16.33366 11.90414,-3.95853 16.37625,-4.74862 16.37625,-2.8932 0,2.95974 -5.92528,6.88725 -16.94981,11.23501 -23.70965,9.3504 -42.09659,23.6565 -52.11257,40.54657 l -4.43762,7.48321 0.005,10.01679 c 0.006,10.60163 1.47119,15.36351 5.3705,17.45036 2.97132,1.59021 18.96113,3.19732 38.87966,3.90774 l 18.46858,0.6587 3.7194,10.5 c 8.88855,25.09266 18.88562,39.59422 39.3065,57.01726 10.31814,8.80341 11.65622,10.31776 10,11.31737 -3.14362,1.89732 -52.57548,7.69869 -86.25,10.12237 -34.84606,2.508 -44.9038,3.49939 -52.40672,5.16571 -13.75774,3.05554 -33.943587,14.30129 -45.418518,25.30335 -6.090679,5.83969 -9.174402,14.29526 -9.174402,25.15622 0,8.19932 0.875407,9.0635 12.19051,12.03419 28.24479,7.41543 68.37615,10.24676 113.09067,7.97872 25.7345,-1.30532 36.54029,-2.50651 69.00298,-7.67049 12.53128,-1.9934 23.82219,-3.36384 25.09091,-3.04541 1.26871,0.31843 7.89084,4.66429 14.71584,9.65748 57.51619,42.07899 119.66047,53.41549 180.95809,33.01078 33.31666,-11.09043 67.39708,-33.63426 83.43322,-55.19019 7.42997,-9.98742 8.20648,-19.81067 1.95473,-24.72829 -3.53999,-2.78456 -7.29206,-3.00026 -71.93695,-4.13551 -57.87426,-1.01635 -66.85018,-1.44303 -66.28094,-3.15074 0.17523,-0.5257 5.93513,-3.34268 12.79977,-6.25995 12.84314,-5.45797 31.85487,-14.19762 56.62714,-26.03136 l 14.14598,-6.75755 8.34353,3.76721 c 13.58989,6.13601 19.20549,7.54358 32.36452,8.11229 14.46217,0.62502 23.41902,-0.98826 34.37606,-6.19174 28.90516,-13.727 50.0186,-43.97128 57.58023,-82.48172 2.75658,-14.03887 2.5971,-13.78206 16.05344,-25.85065 6.8543,-6.14742 13.23128,-12.35063 14.17106,-13.78492 2.39629,-3.65721 1.97875,-8.53216 -1.28293,-14.97876 -5.06594,-10.01266 -9.65632,-12.6031 -24.69868,-13.93794 -4.66967,-0.41438 -8.38513,-1.27654 -9.25655,-2.14796 -2.36723,-2.36722 -3.63884,-5.34608 -2.99658,-7.01976 0.50474,-1.31535 1.85092,-1.4594 8.47539,-0.90694 31.55285,2.63141 58.28533,21.05312 70.23479,48.39972 13.51551,30.93055 16.42349,69.68525 7.27832,96.99826 -1.339,3.99908 -2.43455,7.88967 -2.43455,8.64576 0,1.5236 4.78721,4.69771 19,12.59775 22.12827,12.29978 32.39672,19.56865 45.85591,32.46065 11.10473,10.63676 19.42788,21.84649 25.26319,34.02479 5.96213,12.44297 7.79748,19.84725 8.55176,34.5 1.27523,24.77255 -5.06172,46.66389 -20.38321,70.41498 -20.18235,31.28631 -52.82503,42.57751 -132.28765,45.75869 -27.29092,1.09255 -71.24193,1.6857 -88,1.18762 z m -91.64113,-15.36723 c 37.06862,-5.72153 49.99307,-10.14738 83.14113,-28.47087 51.87038,-28.67277 94.46086,-59.38815 130.20565,-93.90163 21.65471,-20.90878 42.90548,-46.4504 43.93733,-52.80895 1.84209,-11.35143 -8.68088,-23.28543 -22.4075,-25.41215 -6.24086,-0.96692 -14.40616,3.49607 -26.73548,14.61307 -56.98371,51.38061 -95.34916,77.31838 -160.47862,108.49494 -32.58299,15.59702 -45.06258,21.08454 -65.77332,28.92181 -31.36584,11.86932 -60.6347,25.7004 -67.99295,32.13026 -4.5106,3.94149 -3.96697,5.68249 2.87355,9.20275 5.53053,2.84611 14.94252,4.74874 35.37134,7.1503 21.01982,2.47103 32.24855,2.48991 47.85887,0.0805 z M 348.62138,473.39145 c 0,-0.82893 2.78741,-5.94151 6.19425,-11.36129 17.05367,-27.1299 23.18882,-46.19297 24.49518,-76.11115 0.36808,-8.42993 1.06967,-14.59203 1.71655,-15.07669 0.60171,-0.45083 6.26902,-3.01894 12.59402,-5.70691 12.21726,-5.19204 56.66499,-27.14703 71.17399,-35.15644 4.7707,-2.63357 8.99528,-4.46702 9.38797,-4.07433 0.39269,0.39269 -0.68252,5.56439 -2.38935,11.49267 -5.41958,18.82366 -6.61169,27.11829 -6.57933,45.7787 0.0229,13.23488 0.51421,19.53914 2.2181,28.46456 2.74071,14.35652 2.76128,17.42401 0.13332,19.87233 -4.04658,3.76997 -53.59214,22.88367 -92.62352,35.73234 -22.57157,7.43029 -26.32118,8.30585 -26.32118,6.14621 z m -65.9106,-25.80028 c -16.53809,-3.24607 -32.167,-24.03369 -36.02439,-47.91516 -4.27618,-26.47416 3.05297,-53.26971 18.6359,-68.13331 9.29195,-8.86302 12.88902,-10.36669 24.79909,-10.36669 9.20074,0 10.42515,0.23551 15.31929,2.94664 7.76245,4.30004 16.38306,14.02176 21.11839,23.81587 5.99019,12.38951 7.47825,19.70599 7.47187,36.73749 -0.006,16.69155 -1.30237,23.01053 -7.28154,35.5 -7.12234,14.87737 -16.6965,23.90865 -28.58811,26.9671 -6.52831,1.67904 -8.8377,1.74601 -15.4505,0.44806 z m 264.84221,0.0605 c -16.04948,-2.66278 -30.73523,-19.73388 -36.54057,-42.47566 -2.66978,-10.45858 -2.43518,-32.31519 0.46092,-42.94198 4.78206,-17.54698 15.02343,-31.91016 27.14804,-38.07418 7.18704,-3.65381 17.4528,-4.49062 24.86943,-2.02721 16.37253,5.43808 29.15295,23.89587 33.22923,47.99045 1.63437,9.66069 0.59317,29.06731 -2.05884,38.37392 -7.6485,26.84065 -26.56473,42.56317 -47.10821,39.15471 z M 626.03348,320.4925 c -12.53312,-24.77979 -34.14369,-42.46729 -59.72577,-48.88347 -4.77748,-1.19822 -8.66253,-2.68584 -8.63343,-3.30581 0.0291,-0.61996 3.46226,-3.82721 7.62926,-7.12721 11.81357,-9.35559 26.48061,-23.64531 27.99855,-27.27826 1.08926,-2.60697 1.14013,-4.17338 0.24364,-7.50268 -2.89485,-10.75064 -7.00082,-14.38439 -22.92435,-20.28785 -6.15942,-2.28353 -9.19807,-2.794 -17,-2.85587 -8.92327,-0.0708 -9.86425,0.12405 -15.5,3.20899 -3.3,1.80639 -9.43094,6.08139 -13.6243,9.5 -36.8721,30.05976 -46.33693,36.80321 -69.91547,49.81295 -27.35286,15.09226 -41.38562,21.06692 -79.90037,34.01876 -20.02159,6.73291 -17.04365,7.13599 -29.55986,-4.00108 -19.82467,-17.64024 -34.46562,-24.06252 -54.93611,-24.09782 -12.32241,-0.0213 -20.35599,1.85667 -32.06389,7.49523 -11.09317,5.34251 -20.30886,12.86575 -29.03801,23.70522 -3.66846,4.55533 -7.03208,8.41872 -7.47471,8.58533 -2.56128,0.96405 -10.74504,-14.87775 -14.1045,-27.30292 -2.7799,-10.28168 -3.03438,-28.65906 -0.53815,-38.86281 3.61926,-14.7943 10.55528,-28.68803 21.90267,-43.87382 7.9505,-10.63986 31.47246,-34.17609 39.36738,-39.39126 9.04405,-5.97426 34.25766,-16.60699 44.63532,-18.82299 3.62713,-0.77452 3.56038,-3.20183 -0.25342,-9.21556 -14.36375,-22.64928 -9.20668,-52.331374 15.43423,-88.833564 12.74211,-18.875709 12.05497,-17.067928 11.97328,-31.5 -0.0992,-17.529038 -2.97407,-28.587806 -9.14815,-35.190302 -5.06963,-5.421412 -0.37725,-8.172971 13.74406,-8.059368 20.62941,0.16596 41.74911,9.288867 81,34.988916 38.91988,25.483315 71.10891,53.648173 89.4426,78.260754 23.72475,31.849964 32.39996,61.459794 26.98999,92.120964 -1.00722,5.70847 -1.8541,12.17904 -1.88195,14.37904 l -0.0506,4 12,0.61065 c 18.0367,0.91785 28.93255,4.36973 42.71532,13.5325 13.96337,9.28283 30.99687,28.93836 39.30629,45.35685 3.69726,7.30539 4.80719,19.03846 3.50012,37 -1.01275,13.917 -5.51695,33.99841 -7.79615,34.75814 -0.61848,0.20616 -2.33454,-2.01758 -3.81348,-4.94165 z m -369.9121,-99.50028 c 57.14499,-14.09551 122.26708,-50.47466 177.97032,-99.41955 19.17529,-16.84879 37.79041,-35.176904 42.13566,-41.486014 3.27794,-4.75942 3.81633,-6.30067 3.74968,-10.73401 -0.11571,-7.695388 -3.59312,-14.778725 -10.23746,-20.853282 -11.4364,-10.45568 -48.98374,-37.296939 -66.6182,-47.622975 -8.65594,-5.068573 -26.46289,-12.719883 -34.24004,-14.712297 -4.88476,-1.251417 -6.52905,-1.283207 -10.275,-0.198652 -6.27284,1.816156 -8.49246,5.501703 -9.90927,16.453743 -3.37627,26.098881 -4.67394,30.0152 -17.12148,51.672102 -10.0735,17.526411 -15.18377,29.065041 -17.00686,38.400321 -1.61429,8.266144 -0.69248,22.807834 1.97682,31.184404 3.44956,10.82512 3.67311,15.89297 0.88197,19.99422 -2.93058,4.30615 -11.92076,9.62613 -25.46812,15.07088 -14.90526,5.9905 -29.69106,17.02999 -46.27634,34.55118 -9.40208,9.93266 -10.64655,13.02062 -9.10588,22.5949 1.1211,6.96686 2.91804,9.07453 6.95589,8.15871 1.42357,-0.32288 7.08831,-1.69704 12.58831,-3.05368 z"
           id="path3352"
           inkscape:connector-curvature="0" />
        <path
           style="fill:#5f3917"
           d="m 542.62138,713.05015 c -4.125,-0.18449 -18.96667,-0.80831 -32.98148,-1.38627 -14.01481,-0.57795 -25.91731,-1.48666 -26.45,-2.01935 -0.62469,-0.62469 -0.38518,-0.96852 0.67469,-0.96852 3.87483,0 41.38547,-4.24028 53.75679,-6.07678 22.07247,-3.27661 52.71515,-8.93736 64.7702,-11.96526 13.2823,-3.33616 19.98412,-6.91885 48.6556,-26.01056 42.45397,-28.26917 74.48118,-54.16161 109.44551,-88.48138 l 16.37131,-16.06951 -2.04345,-8.08074 C 771.91816,540.51436 767.3795,530.18225 761,520.52973 c -3.03661,-4.59455 -5.7406,-8.69122 -6.00888,-9.10372 -0.26828,-0.4125 0.18609,-0.75 1.0097,-0.75 4.43815,0 30.19348,23.24339 39.77833,35.89871 6.39871,8.44851 13.25886,22.389 16.04318,32.60129 1.83617,6.73468 2.17775,10.60972 2.15964,24.5 -0.019,14.60265 -0.32265,17.62431 -2.64039,26.27735 -4.23137,15.79746 -14.03311,34.9867 -23.97008,46.92719 -16.6216,19.97288 -45.38646,30.07553 -99.25012,34.85813 -12.061,1.0709 -127.59511,2.11228 -145.5,1.31147 z M 141.62678,711.5862 C 114.67833,708.99341 83.84369,699.08404 66.924268,687.57893 48.417852,674.99468 34.418687,655.83973 28.991634,635.67601 c -4.715296,-17.51925 0.592957,-50.01113 11.820135,-72.35119 1.61731,-3.21816 3.189794,-5.60196 3.494409,-5.29735 0.304615,0.30462 -0.177914,3.61266 -1.072287,7.3512 -8.89876,37.19743 -1.679029,65.96413 21.163119,84.32352 l 7.72437,6.20847 30.5,-0.61008 c 16.775,-0.33555 36.575,-1.06336 44,-1.61736 53.54184,-3.99488 122.75092,-17.08292 183,-34.60689 10.725,-3.11946 20.625,-5.86792 22,-6.1077 1.375,-0.23977 7.225,0.92101 13,2.57952 14.38915,4.13239 25.64154,6.08692 40.71821,7.07272 40.09865,2.62187 78.54975,-6.79489 113.2532,-27.73598 18.11426,-10.93068 40.126,-29.88779 46.41228,-39.97153 5.7601,-9.2397 5.59375,-18.77664 -0.44754,-25.65729 -3.76168,-4.28432 -3.76125,-4.2848 12.41509,-13.74296 51.78341,-30.27729 103.09692,-64.19702 115.80404,-76.54984 5.82495,-5.66254 8.44645,-13.02807 9.35602,-26.28726 0.72027,-10.49975 -0.6749,-26.95964 -3.13548,-36.99163 -0.87798,-3.5796 -3.34671,-10.28316 -5.48607,-14.89679 -2.13936,-4.61364 -3.88975,-8.86983 -3.88975,-9.45821 0,-0.58838 2.06773,0.93641 4.59496,3.38842 12.40208,12.03297 22.12493,33.04219 27.05386,58.45821 2.57263,13.26578 2.39391,38.83136 -0.3608,51.61128 -1.13944,5.28621 -3.01312,11.73949 -4.16372,14.34063 l -2.09201,4.72934 -4.06377,-0.68657 c -4.05221,-0.68461 -4.08262,-0.66566 -10.68736,6.65938 -11.01092,12.21174 -34.19763,34.82842 -44.79869,43.69734 -52.87511,44.23568 -123.63376,82.75268 -217.78067,118.54745 -62.66639,23.82584 -133.79989,44.84208 -174.34761,51.51063 -48.76886,8.0206 -91.71342,10.852 -121.34879,8.00071 z m 6.39768,-215.64496 c -4.73328,-5.1342 -13.5734,-18.35269 -17.23009,-25.76385 -7.08232,-14.35406 -8.65094,-21.54283 -8.66277,-39.70026 -0.007,-11.23694 0.34505,-16.05447 1.23978,-16.95 1.00026,-1.00115 1.25295,-0.66172 1.26478,1.69888 0.0291,5.80079 3.13103,16.10414 7.66207,25.45 5.96636,12.30641 15.80179,22.59341 24.32315,25.43993 8.84827,2.95572 22.47455,3.10175 45.96855,0.49264 l 20.77939,-2.30763 8.87603,8.07843 c 4.88182,4.44313 10.19946,9.1907 11.81698,10.55015 2.79258,2.34703 2.84303,2.52341 1,3.49611 -3.58639,1.89281 -55.6937,8.14541 -81.44095,9.77248 -5.225,0.33019 -10.50565,0.80464 -11.73477,1.05435 -1.33409,0.27102 -2.89065,-0.25744 -3.86215,-1.31123 z m 208.59692,-33.78949 c 0,-0.28835 2.46476,-4.65569 5.47724,-9.70521 3.01248,-5.04951 7.3475,-13.56098 9.63338,-18.91437 l 4.15615,-9.73343 8.61662,-3.67773 c 18.37176,-7.84141 48.85255,-21.80032 62.15788,-28.46568 7.66264,-3.83862 14.35225,-6.97932 14.86581,-6.97932 0.51355,0 1.22302,3.0375 1.57659,6.75 0.35356,3.7125 1.57131,11.85557 2.70609,18.09572 2.01742,11.09367 2.02156,11.38508 0.18675,13.1178 -3.40609,3.21656 -56.36994,24.10809 -86.57946,34.15117 -15.87852,5.27878 -22.79705,6.90577 -22.79705,5.36105 z m -77.11772,-15.85632 c -8.6546,-3.09272 -18.84417,-12.53262 -24.18712,-22.40762 -12.43394,-22.98075 -12.18414,-57.74866 0.57631,-80.2118 4.38516,-7.7195 13.4829,-16.52814 20.43302,-19.78369 8.29811,-3.88698 19.31396,-3.87687 27.64645,0.0254 8.57667,4.0166 16.72242,12.91772 22.13865,24.19161 6.35383,13.22553 7.8492,21.4074 7.29271,39.90177 -0.39658,13.17944 -0.81461,16.21235 -3.19288,23.16494 -3.83478,11.21053 -7.92833,17.95706 -15.52797,25.59145 -4.90063,4.92304 -8.02637,7.13782 -12.34896,8.75 -6.6423,2.47736 -17.07942,2.83302 -22.83021,0.77797 z m 263.51402,-0.0376 c -12.91463,-4.04211 -24.55073,-18.35446 -30.55444,-37.5818 -2.05816,-6.59144 -2.34186,-9.49883 -2.34186,-24 0,-12.75624 0.40506,-17.96763 1.78525,-22.96835 4.69807,-17.02217 15.15447,-31.16901 27.5476,-37.27013 13.85991,-6.82321 28.79323,-3.41342 40.51908,9.25189 20.86463,22.53629 23.3161,67.65798 5.15969,94.96911 -10.25898,15.43171 -26.86685,22.37186 -42.11532,17.59928 z m 82.0798,-130.3318 c -2.03908,-3.7125 -6.35538,-10.42004 -9.59177,-14.90564 -3.23638,-4.4856 -5.88433,-8.59372 -5.88433,-9.12916 0,-0.53543 1.16743,-3.52351 2.59428,-6.64018 1.42686,-3.11666 3.25626,-9.50261 4.06533,-14.191 1.75962,-10.19663 0.78373,-20.80658 -3.20859,-34.88402 -1.40381,-4.95 -2.81381,-10.125 -3.13334,-11.5 l -0.58096,-2.5 3.20873,3 c 4.53334,4.23844 15.19539,18.80544 19.3962,26.5 5.7462,10.52521 7.16133,26.38566 4.14892,46.5 -1.60196,10.69653 -5.28916,24.5 -6.54447,24.5 -0.41941,0 -2.43091,-3.0375 -4.47,-6.75 z m -408.86091,-12.5 c -6.63239,-11.90243 -8.8724,-20.56832 -9.3701,-36.25 -0.46431,-14.6294 0.72888,-23.06799 4.41791,-31.24478 l 1.6942,-3.75522 0.7078,9.03227 c 0.81892,10.45022 3.01612,19.77466 6.40459,27.17972 2.2598,4.93848 11.1087,14.77266 16.56596,18.4105 l 2.43397,1.6225 -3.71805,4.3775 c -2.04492,2.40763 -5.86306,7.16947 -8.48476,10.58187 -2.62169,3.41239 -5.30719,6.22489 -5.96777,6.25 -0.66058,0.0251 -2.76827,-2.76686 -4.68375,-6.20436 z m 127.88481,-10.45409 c -11.61308,-10.74135 -23.28619,-17.83795 -34.44426,-20.94017 -3.35953,-0.93403 -5.95861,-2.18368 -5.77572,-2.77699 0.18288,-0.59331 10.43219,-6.27633 22.77625,-12.62892 36.48507,-18.77624 64.07534,-36.02046 95.44373,-59.65336 25.23149,-19.00937 40.29078,-31.89171 78.77454,-67.387 l 7.14541,-6.59054 -0.26,-8.40946 c -0.31854,-10.30293 -2.71131,-20.814044 -8.1745,-35.909474 -6.36739,-17.593813 -6.31172,-17.757941 2.80476,-8.2701 20.35714,21.18639 35.86895,50.486834 39.27915,74.194854 1.90092,13.21543 -0.0223,35.93076 -3.90734,46.1491 -0.52847,1.38999 -2.70316,3.68025 -4.83263,5.08947 -2.12948,1.40922 -8.81224,7.15614 -14.85058,12.77092 -40.55129,37.70682 -84.90045,63.0273 -145.62067,83.13992 -9.8396,3.25921 -19.12048,5.90797 -20.62416,5.88613 -1.82952,-0.0266 -4.38809,-1.56965 -7.73398,-4.66438 z"
           id="path3350"
           inkscape:connector-curvature="0" />
        <path
           style="fill:#101010"
           d="m 282.55073,446.30864 c -14.66962,-3.95535 -27.31636,-18.92791 -33.09189,-39.1777 -3.16024,-11.08026 -3.14944,-33.09313 0.0221,-44.95493 6.29084,-23.52848 20.98214,-39.0359 38.14047,-40.25925 8.35831,-0.59593 13.34508,0.80633 20.96643,5.89567 30.43813,20.3258 33.40375,83.08518 5.1515,109.01756 -6.35511,5.83326 -10.7062,8.1944 -17.91715,9.72281 -6.38771,1.35392 -7.41453,1.33503 -13.27143,-0.24416 z m 264.4144,0.32595 c -23.1954,-4.58904 -40.08395,-37.46431 -36.44233,-70.93867 2.5928,-23.83344 12.70153,-41.64003 28.50684,-50.21494 5.53508,-3.00296 6.86846,-3.30497 14.59174,-3.30497 7.77895,0 9.03465,0.28989 14.80263,3.41738 8.22675,4.46066 15.27984,12.30285 20.17974,22.43746 5.91897,12.24237 7.41931,19.63543 7.43671,36.64516 0.0169,16.52321 -1.43801,23.88994 -7.06204,35.75738 -4.07924,8.60774 -13.07119,18.68641 -20.03775,22.45939 -3.93833,2.13295 -14.95709,5.11783 -17.25295,4.67366 -0.31149,-0.0603 -2.43665,-0.47959 -4.72259,-0.93185 z"
           id="path3348"
           inkscape:connector-curvature="0" />
      </g>
      <g
         id="g4205"
         transform="translate(1144.6624,-566.0694)">
        <g
           transform="translate(-259.42431,32.561514)"
           id="g4171" />
        <g
           id="g4242"
           inkscape:export-xdpi="90"
           inkscape:export-ydpi="90">
          <path
             style="fill:none;fill-rule:evenodd;stroke:#000000;stroke-width:1px;stroke-linecap:butt;stroke-linejoin:miter;stroke-opacity:1"
             d="m -532.68569,473.9279 c 0,0 40.95037,24.08845 -7.22653,86.71842 -28.90614,52.99459 0,81.90073 0,81.90073 0,0 -158.98377,45.76806 -91.53611,175.84568 -178.25452,55.40344 -79.49189,180.66337 -79.49189,180.66337 0,0 -110.80686,-16.86191 -122.85109,132.4865 45.76806,130.0776 218.68342,75.0273 243.29334,74.6742 441.52005,7.5767 539.581279,52.9945 549.216659,-105.9892 5.46156,-72.0494 -96.353799,-113.21572 -96.353799,-113.21572 0,0 43.359209,-137.30417 -84.30958,-158.98377 43.35921,-122.8511 -93.94495,-137.30416 -93.94495,-137.30416 0,0 40.95036,-69.85651 -84.30957,-168.61915 -113.21572,-74.6742 -132.48648,-48.1769 -132.48648,-48.1769 z"
             id="path4153"
             inkscape:connector-curvature="0"
             sodipodi:nodetypes="ccccccccccccc" />
          <path
             transform="translate(-285.53215,54.93966)"
             inkscape:connector-curvature="0"
             id="path4157"
             d="m -426.65512,1159.9137 c -48.51483,-7.8239 -84.3797,-32.0228 -102.03952,-68.8485 -6.84931,-14.2828 -7.12141,-15.9678 -4.96853,-30.7678 9.20698,-63.29372 41.94165,-103.84547 91.39868,-113.22481 6.95951,-1.31983 16.29964,-2.39972 20.75584,-2.39972 4.45619,0 8.10217,-0.41066 8.10217,-0.91259 0,-0.5019 -3.61973,-6.92374 -8.04385,-14.27072 -12.26485,-20.36779 -17.24902,-38.25395 -17.24902,-61.89973 0,-17.8458 0.9024,-22.25611 7.02705,-34.3435 13.01719,-25.69024 44.27089,-49.59116 81.61102,-62.41115 12.01497,-4.1251 16.07011,-6.58296 15.23578,-9.23452 -0.62531,-1.9873 -4.07615,-11.74312 -7.66852,-21.67961 -9.62569,-26.62463 -9.31862,-51.42091 0.9074,-73.2734 13.54094,-28.93634 47.69282,-58.18334 83.55064,-71.55113 7.94919,-2.96346 14.83695,-5.66786 15.30614,-6.00979 0.4692,-0.34192 -2.11518,-6.68858 -5.74305,-14.10367 -9.11704,-18.63458 -7.71297,-38.01191 4.42255,-61.03435 25.48013,-48.33867 27.80939,-55.02447 24.78552,-71.14313 -0.8588,-4.5778 -4.21008,-12.22624 -7.44728,-16.99652 l -5.88582,-8.67324 31.89218,5.00946 c 22.60958,3.5514 48.73588,14.7276 92.01815,43.98704 21.039529,14.22302 56.589336,50.51764 70.585905,72.06473 18.131714,27.91298 26.307502,57.05325 22.129071,78.87291 -1.141696,5.96189 -2.415975,12.83633 -2.831765,15.27654 -0.625529,3.67136 2.36062,5.22944 17.3103932,9.03198 38.1330998,9.69931 69.1999498,33.21992 78.0031938,59.05599 4.808006,14.11077 5.034799,41.27895 0.490778,58.79656 -1.873696,7.22335 -2.981716,13.82108 -2.462225,14.66162 0.519492,0.84055 5.128046,2.19723 10.241229,3.01487 14.82314,2.37032 42.26374,17.41093 52.98459,29.04168 23.60639,25.60993 31.65704,62.44858 23.47287,107.40869 -2.47085,13.57362 -2.59683,18.52912 -0.5066,19.92734 1.53012,1.02356 12.41851,7.52745 24.19641,14.45307 25.96475,15.26776 50.69882,39.0532 60.15968,57.8524 8.87589,17.6367 10.47647,36.9319 5.45945,65.8137 -4.7935,27.5951 -10.58885,41.1767 -23.58772,55.2788 -30.97922,33.6085 -77.01704,38.9676 -268.197598,31.2198 -47.69513,-1.9329 -124.164882,-4.6968 -169.932762,-6.1419 -80.27808,-2.5348 -84.23045,-2.4482 -112.01129,2.4559 -27.73458,4.8959 -87.8977,8.2082 -103.47114,5.6967 z"
             style="fill:#6f4725;fill-opacity:1;stroke:#6f4725;stroke-width:36.13267517;stroke-linecap:round;stroke-linejoin:miter;stroke-miterlimit:4;stroke-dasharray:none;stroke-opacity:1"
             sodipodi:nodetypes="sssssssssssssscsssscsssssssssssssssssssss" />
          <path
             sodipodi:nodetypes="ccccccc"
             inkscape:connector-curvature="0"
             id="path4159"
             d="m -77.459642,526.73427 c 0,0 13.732678,36.13358 7.785945,49.61304 -46.137983,67.22144 -96.620963,104.11468 -250.252703,158.25315 -33.43159,12.87082 -50.14738,-28.20059 -50.14738,-28.20059 0,0 -18.71135,12.62871 15.01248,63.21445 117.18605,11.40959 269.936758,-74.11478 313.295968,-129.51822 22.91948,-51.99681 -35.69431,-113.36183 -35.69431,-113.36183 z"
             style="fill:#5f3917;fill-opacity:1;fill-rule:evenodd;stroke:#5f3917;stroke-width:1px;stroke-linecap:butt;stroke-linejoin:miter;stroke-opacity:1"
             transform="translate(-259.42431,32.56151)" />
          <path
             style="fill:#5f3917;fill-opacity:1;fill-rule:evenodd;stroke:#5f3917;stroke-width:1.2570945px;stroke-linecap:butt;stroke-linejoin:miter;stroke-opacity:1"
             d="m 28.058383,689.33632 c 0,0 8.035415,36.95149 -2.531351,58.30839 -116.577635,88.94235 -199.685142,116.1955 -433.385272,170.25544 -43.47353,17.10426 -62.08713,-33.82903 -62.08713,-33.82903 0,0 -14.13633,26.383 17.94302,62.41722 185.45654,11.39304 437.270809,-105.66464 505.890316,-160.98772 36.271956,-51.92139 -25.829583,-96.1643 -25.829583,-96.1643 z"
             id="path4161"
             inkscape:connector-curvature="0"
             sodipodi:nodetypes="ccccccc"
             transform="translate(-259.42431,32.56151)" />
          <path
             sodipodi:nodetypes="ccccscc"
             inkscape:connector-curvature="0"
             id="path4163"
             d="m 172.07002,985.21202 c 0,0 23.84635,25.54968 21.29138,45.98938 -5.10993,17.0331 -101.043673,94.7908 -160.111203,126.045 -50.24766,19.588 -132.85823,22.9947 -132.85823,22.9947 0,0 240.166803,16.1814 283.601223,-13.6265 61.25674,-42.039 45.13773,-118.3801 45.13773,-118.3801 0,0 -7.66489,-40.0278 -57.0609,-63.02248 z"
             style="fill:#5f3917;fill-opacity:1;fill-rule:evenodd;stroke:#5f3917;stroke-width:1px;stroke-linecap:butt;stroke-linejoin:miter;stroke-opacity:1"
             transform="translate(-259.42431,32.56151)" />
          <path
             sodipodi:nodetypes="ccsscccc"
             inkscape:connector-curvature="0"
             id="path4165"
             d="m -509.08126,1125.4784 c 0,0 -38.54152,-14.4531 -26.49729,-96.3538 0,0 -51.79017,85.514 26.49729,133.6909 78.28746,48.1769 196.32086,10.8398 228.84027,4.8177 32.51941,-6.0222 348.078103,-107.1937 410.70807,-213.18283 0,0 39.74594,-50.58575 -15.65749,-127.66879 0,0 21.6796,46.97248 0,81.90073 0,0 -277.01718,224.02259 -623.89085,216.79609 z"
             style="fill:#5f3917;fill-opacity:1;fill-rule:evenodd;stroke:#5f3917;stroke-width:1px;stroke-linecap:butt;stroke-linejoin:miter;stroke-opacity:1"
             transform="translate(-259.42431,32.56151)" />
          <g
             id="g4182"
             transform="translate(-270.51104,32.561514)">
            <ellipse
               ry="103.58034"
               rx="75.878616"
               cy="830.99707"
               cx="-286.26309"
               id="path4167"
               style="fill:#ffffff;fill-opacity:1;stroke:#ffffff;stroke-width:15;stroke-linecap:round;stroke-linejoin:miter;stroke-miterlimit:4;stroke-dasharray:none;stroke-opacity:1" />
            <ellipse
               style="fill:#000000;fill-opacity:1;stroke:#ffffff;stroke-width:9.14968586;stroke-linecap:round;stroke-linejoin:miter;stroke-miterlimit:4;stroke-dasharray:none;stroke-opacity:1"
               id="ellipse4178"
               cx="-286.26309"
               cy="830.99707"
               rx="46.284367"
               ry="63.181835" />
          </g>
          <g
             id="g4186"
             transform="translate(-9.1513509,32.561514)">
            <ellipse
               style="fill:#ffffff;fill-opacity:1;stroke:#ffffff;stroke-width:15;stroke-linecap:round;stroke-linejoin:miter;stroke-miterlimit:4;stroke-dasharray:none;stroke-opacity:1"
               id="ellipse4188"
               cx="-286.26309"
               cy="830.99707"
               rx="75.878616"
               ry="103.58034" />
            <ellipse
               ry="63.181835"
               rx="46.284367"
               cy="830.99707"
               cx="-286.26309"
               id="ellipse4190"
               style="fill:#000000;fill-opacity:1;stroke:#ffffff;stroke-width:9.14968586;stroke-linecap:round;stroke-linejoin:miter;stroke-miterlimit:4;stroke-dasharray:none;stroke-opacity:1" />
          </g>
          <path
             style="fill:#ffffff;fill-opacity:1;stroke:#ffffff;stroke-width:18.00472641;stroke-linecap:round;stroke-linejoin:round;stroke-miterlimit:4;stroke-dasharray:none;stroke-opacity:1"
             d="m -589.14117,1035.7919 a 171.06868,113.22256 0 0 0 167.34364,90.3364 171.06868,113.22256 0 0 0 167.50728,-90.3364 l -334.85092,0 z"
             id="path4192"
             inkscape:connector-curvature="0" />
        </g>
        <g
           id="g4288"
           transform="translate(0,892.64089)"
           inkscape:export-xdpi="90"
           inkscape:export-ydpi="90">
          <path
             sodipodi:nodetypes="ccccccccccccc"
             inkscape:connector-curvature="0"
             id="path4290"
             d="m -532.68569,473.9279 c 0,0 40.95037,24.08845 -7.22653,86.71842 -28.90614,52.99459 0,81.90073 0,81.90073 0,0 -158.98377,45.76806 -91.53611,175.84568 -178.25452,55.40344 -79.49189,180.66337 -79.49189,180.66337 0,0 -110.80686,-16.86191 -122.85109,132.4865 45.76806,130.0776 218.68342,75.0273 243.29334,74.6742 441.52005,7.5767 539.581279,52.9945 549.216659,-105.9892 5.46156,-72.0494 -96.353799,-113.21572 -96.353799,-113.21572 0,0 43.359209,-137.30417 -84.30958,-158.98377 43.35921,-122.8511 -93.94495,-137.30416 -93.94495,-137.30416 0,0 40.95036,-69.85651 -84.30957,-168.61915 -113.21572,-74.6742 -132.48648,-48.1769 -132.48648,-48.1769 z"
             style="fill:none;fill-rule:evenodd;stroke:#000000;stroke-width:1px;stroke-linecap:butt;stroke-linejoin:miter;stroke-opacity:1" />
          <path
             sodipodi:nodetypes="sssssssssssssscsssscsssssssssssssssssssss"
             style="fill:#6f4725;fill-opacity:1;stroke:#6f4725;stroke-width:36.13267517;stroke-linecap:round;stroke-linejoin:miter;stroke-miterlimit:4;stroke-dasharray:none;stroke-opacity:1"
             d="m -426.65512,1159.9137 c -48.51483,-7.8239 -84.3797,-32.0228 -102.03952,-68.8485 -6.84931,-14.2828 -7.12141,-15.9678 -4.96853,-30.7678 9.20698,-63.29372 41.94165,-103.84547 91.39868,-113.22481 6.95951,-1.31983 16.29964,-2.39972 20.75584,-2.39972 4.45619,0 8.10217,-0.41066 8.10217,-0.91259 0,-0.5019 -3.61973,-6.92374 -8.04385,-14.27072 -12.26485,-20.36779 -17.24902,-38.25395 -17.24902,-61.89973 0,-17.8458 0.9024,-22.25611 7.02705,-34.3435 13.01719,-25.69024 44.27089,-49.59116 81.61102,-62.41115 12.01497,-4.1251 16.07011,-6.58296 15.23578,-9.23452 -0.62531,-1.9873 -4.07615,-11.74312 -7.66852,-21.67961 -9.62569,-26.62463 -9.31862,-51.42091 0.9074,-73.2734 13.54094,-28.93634 47.69282,-58.18334 83.55064,-71.55113 7.94919,-2.96346 14.83695,-5.66786 15.30614,-6.00979 0.4692,-0.34192 -2.11518,-6.68858 -5.74305,-14.10367 -9.11704,-18.63458 -7.71297,-38.01191 4.42255,-61.03435 25.48013,-48.33867 27.80939,-55.02447 24.78552,-71.14313 -0.8588,-4.5778 -4.21008,-12.22624 -7.44728,-16.99652 l -5.88582,-8.67324 31.89218,5.00946 c 22.60958,3.5514 48.73588,14.7276 92.01815,43.98704 21.039529,14.22302 56.589336,50.51764 70.585905,72.06473 18.131714,27.91298 26.307502,57.05325 22.129071,78.87291 -1.141696,5.96189 -2.415975,12.83633 -2.831765,15.27654 -0.625529,3.67136 2.36062,5.22944 17.3103932,9.03198 38.1330998,9.69931 69.1999498,33.21992 78.0031938,59.05599 4.808006,14.11077 5.034799,41.27895 0.490778,58.79656 -1.873696,7.22335 -2.981716,13.82108 -2.462225,14.66162 0.519492,0.84055 5.128046,2.19723 10.241229,3.01487 14.82314,2.37032 42.26374,17.41093 52.98459,29.04168 23.60639,25.60993 31.65704,62.44858 23.47287,107.40869 -2.47085,13.57362 -2.59683,18.52912 -0.5066,19.92734 1.53012,1.02356 12.41851,7.52745 24.19641,14.45307 25.96475,15.26776 50.69882,39.0532 60.15968,57.8524 8.87589,17.6367 10.47647,36.9319 5.45945,65.8137 -4.7935,27.5951 -10.58885,41.1767 -23.58772,55.2788 -30.97922,33.6085 -77.01704,38.9676 -268.197598,31.2198 -47.69513,-1.9329 -124.164882,-4.6968 -169.932762,-6.1419 -80.27808,-2.5348 -84.23045,-2.4482 -112.01129,2.4559 -27.73458,4.8959 -87.8977,8.2082 -103.47114,5.6967 z"
             id="path4292"
             inkscape:connector-curvature="0"
             transform="translate(-285.53215,54.93966)" />
          <path
             transform="translate(-259.42431,32.56151)"
             style="fill:#5f3917;fill-opacity:1;fill-rule:evenodd;stroke:#5f3917;stroke-width:1px;stroke-linecap:butt;stroke-linejoin:miter;stroke-opacity:1"
             d="m -77.459642,526.73427 c 0,0 13.732678,36.13358 7.785945,49.61304 -46.137983,67.22144 -96.620963,104.11468 -250.252703,158.25315 -33.43159,12.87082 -50.14738,-28.20059 -50.14738,-28.20059 0,0 -18.71135,12.62871 15.01248,63.21445 117.18605,11.40959 269.936758,-74.11478 313.295968,-129.51822 22.91948,-51.99681 -35.69431,-113.36183 -35.69431,-113.36183 z"
             id="path4294"
             inkscape:connector-curvature="0"
             sodipodi:nodetypes="ccccccc" />
          <path
             transform="translate(-259.42431,32.56151)"
             sodipodi:nodetypes="ccccccc"
             inkscape:connector-curvature="0"
             id="path4296"
             d="m 28.058383,689.33632 c 0,0 8.035415,36.95149 -2.531351,58.30839 -116.577635,88.94235 -199.685142,116.1955 -433.385272,170.25544 -43.47353,17.10426 -62.08713,-33.82903 -62.08713,-33.82903 0,0 -14.13633,26.383 17.94302,62.41722 185.45654,11.39304 437.270809,-105.66464 505.890316,-160.98772 36.271956,-51.92139 -25.829583,-96.1643 -25.829583,-96.1643 z"
             style="fill:#5f3917;fill-opacity:1;fill-rule:evenodd;stroke:#5f3917;stroke-width:1.2570945px;stroke-linecap:butt;stroke-linejoin:miter;stroke-opacity:1" />
          <path
             transform="translate(-259.42431,32.56151)"
             style="fill:#5f3917;fill-opacity:1;fill-rule:evenodd;stroke:#5f3917;stroke-width:1px;stroke-linecap:butt;stroke-linejoin:miter;stroke-opacity:1"
             d="m 172.07002,985.21202 c 0,0 23.84635,25.54968 21.29138,45.98938 -5.10993,17.0331 -101.043673,94.7908 -160.111203,126.045 -50.24766,19.588 -132.85823,22.9947 -132.85823,22.9947 0,0 240.166803,16.1814 283.601223,-13.6265 61.25674,-42.039 45.13773,-118.3801 45.13773,-118.3801 0,0 -7.66489,-40.0278 -57.0609,-63.02248 z"
             id="path4298"
             inkscape:connector-curvature="0"
             sodipodi:nodetypes="ccccscc" />
          <path
             transform="translate(-259.42431,32.56151)"
             style="fill:#5f3917;fill-opacity:1;fill-rule:evenodd;stroke:#5f3917;stroke-width:1px;stroke-linecap:butt;stroke-linejoin:miter;stroke-opacity:1"
             d="m -509.08126,1125.4784 c 0,0 -38.54152,-14.4531 -26.49729,-96.3538 0,0 -51.79017,85.514 26.49729,133.6909 78.28746,48.1769 196.32086,10.8398 228.84027,4.8177 32.51941,-6.0222 348.078103,-107.1937 410.70807,-213.18283 0,0 39.74594,-50.58575 -15.65749,-127.66879 0,0 21.6796,46.97248 0,81.90073 0,0 -277.01718,224.02259 -623.89085,216.79609 z"
             id="path4300"
             inkscape:connector-curvature="0"
             sodipodi:nodetypes="ccsscccc" />
          <g
             transform="translate(-270.51104,32.561514)"
             id="g4302">
            <ellipse
               style="fill:#6f4725;fill-opacity:1;stroke:#5f3917;stroke-width:15;stroke-linecap:round;stroke-linejoin:miter;stroke-miterlimit:4;stroke-dasharray:none;stroke-opacity:1"
               id="ellipse4304"
               cx="-286.26309"
               cy="830.99707"
               rx="75.878616"
               ry="103.58034" />
            <path
               style="fill:none;fill-rule:evenodd;stroke:#5f3917;stroke-width:20;stroke-linecap:butt;stroke-linejoin:miter;stroke-opacity:1;stroke-miterlimit:4;stroke-dasharray:none"
               d="m -362.99422,831.78775 151.53628,0"
               id="path4318"
               inkscape:connector-curvature="0" />
          </g>
          <g
             transform="translate(-9.1513509,32.561514)"
             id="g4308">
            <ellipse
               ry="103.58034"
               rx="75.878616"
               cy="830.99707"
               cx="-286.26309"
               id="ellipse4310"
               style="fill:#ffffff;fill-opacity:1;stroke:#ffffff;stroke-width:15;stroke-linecap:round;stroke-linejoin:miter;stroke-miterlimit:4;stroke-dasharray:none;stroke-opacity:1" />
            <ellipse
               style="fill:#000000;fill-opacity:1;stroke:#ffffff;stroke-width:9.14968586;stroke-linecap:round;stroke-linejoin:miter;stroke-miterlimit:4;stroke-dasharray:none;stroke-opacity:1"
               id="ellipse4312"
               cx="-286.26309"
               cy="830.99707"
               rx="46.284367"
               ry="63.181835" />
          </g>
          <path
             inkscape:connector-curvature="0"
             id="path4314"
             d="m -589.14117,1035.7919 a 171.06868,113.22256 0 0 0 167.34364,90.3364 171.06868,113.22256 0 0 0 167.50728,-90.3364 l -334.85092,0 z"
             style="fill:#ffffff;fill-opacity:1;stroke:#ffffff;stroke-width:18.00472641;stroke-linecap:round;stroke-linejoin:round;stroke-miterlimit:4;stroke-dasharray:none;stroke-opacity:1" />
          <path
             inkscape:connector-curvature="0"
             id="path4316"
             d="m -364.56008,1212.3002 a 50.792638,40.921783 0 0 1 -50.79257,-40.9221 50.792638,40.921783 0 0 1 0.0958,-2.1992 l -0.11257,0 0,-126.1107 101.6185,0 0,126.1107 -0.15426,0 a 50.792638,40.921783 0 0 1 0.13758,2.1992 50.792638,40.921783 0 0 1 -50.79257,40.9221 z"
             style="fill:#b00000;fill-opacity:1;stroke:#b00000;stroke-width:4.85426807;stroke-linecap:round;stroke-linejoin:round;stroke-miterlimit:4;stroke-dasharray:none;stroke-opacity:1" />
        </g>
      </g>
    </g>
  </g>
</svg>
